<svg id="Layer_1" data-name="Layer 1" xmlns="http://www.w3.org/2000/svg" viewBox="0 0 500 500"><title>puppy</title><path d="M250,0C112.1,0,0,112.2,0,250a23,23,0,0,0,46,0C46,137.5,137.5,46.1,249.9,46.1s204,91.4,204,203.9S362.5,453.9,250,453.9a204.2,204.2,0,0,1-85.5-18.8c3-12.1,9.3-25.4,18.2-38,26.4-37.2,66.8-58.7,103.1-54.6,56.8,6.4,70.9,2.3,76.1.8,20.7-6,46.2-31.4,54.4-40.6a91.94,91.94,0,0,0,21.3-44,34.54,34.54,0,0,0-16.1-35.5,406.61,406.61,0,0,0-72.7-35.4l-1.4-.5c-5.4-2-10.1-3.7-12.5-6-3.2-3-6.5-9.1-9.8-15-1.7-3.1-3.5-6.4-5.5-9.6-21.6-35.5-55.2-54.3-97.2-54.3h-.1c-30.3,0-57.4,10.1-68.7,16.1C124.8,133.7,104.1,157,95.2,184c-5.3,16.1-7.2,33.9-5.6,54.4a202.74,202.74,0,0,0,11.3,53.3c1.5,4.3,6.3,17.4,20,22.8,12,4.7,22.8.5,27.4-1.4,39.6-15.7,81.2-57.1,79-126.4a23,23,0,0,0-46,1.4c1.5,46.3-24.1,68.3-40.4,77.5a151.66,151.66,0,0,1-5.4-30.8c-1.1-14.3.1-26.3,3.5-36.6,5.2-15.7,18-29.6,36.2-39.3,5.2-2.8,25.2-10.7,47.2-10.7h.1c25.8,0,44.7,10.5,57.8,32.2,1.4,2.4,2.9,5,4.4,7.8,4.8,8.7,10.2,18.6,18.8,26.6,9.3,8.6,19.7,12.5,28,15.5l1.3.5A366.46,366.46,0,0,1,390.2,258a46.63,46.63,0,0,1-8.6,14.3c-10.3,11.8-27,25-32.4,26.7-.4.1-11.3,3-58.3-2.3-53.4-6-109.3,22.3-145.8,73.8-10.4,14.6-27.9,44.1-28.7,77.3v.1a10.87,10.87,0,0,0,.1,1.8v.5a5.85,5.85,0,0,0,.2,1.3,21.68,21.68,0,0,0,2,6.7,1.69,1.69,0,0,1,.2.5c.2.3.4.7.6,1s.4.7.6,1,.2.3.3.5a25.22,25.22,0,0,0,4.7,5.1,4.44,4.44,0,0,0,1.1.8c.1.1.3.2.4.3.5.3,1,.7,1.6,1h.1A249.78,249.78,0,0,0,250,500c137.9,0,250-112.1,250-250S387.9,0,250,0Z" style="fill:#fff"/></svg>